<svg width="160" height="160" viewBox="0 0 160 160" fill="none" xmlns="http://www.w3.org/2000/svg">
<g clip-path="url(#clip0_855_80106)">
<path d="M147.336 41.6613C126.893 25.9447 107.065 38.7535 84.9487 34.2247C62.6725 29.6632 53.7972 14.4747 28.425 21.4857C5.94937 27.696 -7.68813 52.5953 4.6675 73.4413C8.18844 79.3816 14.1866 83.8632 16.6378 90.5097C20.5919 101.232 14.5731 109.464 15.7472 120.001C20.6259 163.783 87.4891 146.824 112.092 133.203C150.676 111.84 176.779 64.2972 147.336 41.6613Z" fill="#E4F7F9"/>
<path opacity="0.24" d="M128.491 25.7426C127.331 25.7426 126.171 25.3007 125.287 24.4176C123.521 22.6511 123.521 19.7764 125.287 18.0095C127.054 16.2426 129.929 16.2426 131.695 18.0095C133.462 19.7764 133.462 22.6507 131.695 24.4176C130.812 25.3007 129.652 25.7426 128.491 25.7426ZM128.492 19.8079C128.131 19.8079 127.771 19.9448 127.497 20.2192C126.949 20.7673 126.949 21.6595 127.497 22.2079C128.045 22.7561 128.938 22.7564 129.486 22.2079C130.034 21.6598 130.034 20.7676 129.486 20.2192C129.212 19.9448 128.852 19.8079 128.492 19.8079Z" fill="#67ADB9"/>
<path opacity="0.48" d="M136.35 41.021C135.19 41.0213 134.029 40.5794 133.146 39.6959C132.29 38.84 131.819 37.7022 131.819 36.4919C131.819 35.2816 132.29 34.1437 133.146 33.2878C134.912 31.5212 137.787 31.5209 139.554 33.2878C140.41 34.1437 140.881 35.2816 140.881 36.4919C140.881 37.7025 140.41 38.8403 139.554 39.6959C138.671 40.5791 137.51 41.021 136.35 41.021ZM136.35 35.0863C135.99 35.0863 135.63 35.2231 135.356 35.4975C135.09 35.7631 134.944 36.1163 134.944 36.4919C134.944 36.8675 135.09 37.2206 135.356 37.4863C135.904 38.0347 136.796 38.0347 137.344 37.4863C137.61 37.2206 137.756 36.8675 137.756 36.4919C137.756 36.1163 137.61 35.7634 137.344 35.4975C137.07 35.2231 136.71 35.0863 136.35 35.0863Z" fill="#67ADB9"/>
<path opacity="0.24" d="M32.9299 73.9875C31.7695 73.9875 30.6089 73.5456 29.7258 72.6625C27.9592 70.8956 27.9592 68.0209 29.7258 66.2544C31.4924 64.4881 34.3674 64.4878 36.1339 66.2544C37.9005 68.0212 37.9005 70.8956 36.1339 72.6625C35.2508 73.5456 34.0902 73.9875 32.9299 73.9875ZM32.9299 68.0528C32.5699 68.0528 32.2095 68.1897 31.9355 68.4641C31.387 69.0122 31.387 69.9044 31.9355 70.4528C32.4836 71.0012 33.3761 71.0009 33.9242 70.4528C34.4727 69.9047 34.4727 69.0125 33.9242 68.4641C33.6502 68.1897 33.2902 68.0528 32.9299 68.0528Z" fill="#67ADB9"/>
<path opacity="0.48" d="M30.9154 88.0317C30.5154 88.0317 30.1158 87.8792 29.8104 87.5742L27.9467 85.7104L26.0829 87.5742C25.4726 88.1842 24.4836 88.1842 23.8733 87.5742C23.2629 86.9639 23.2629 85.9745 23.8733 85.3645L26.842 82.3957C27.4523 81.7857 28.4414 81.7857 29.0517 82.3957L32.0204 85.3645C32.6307 85.9748 32.6307 86.9642 32.0204 87.5742C31.7151 87.8789 31.3154 88.0317 30.9154 88.0317Z" fill="#67ADB9"/>
<path opacity="0.48" d="M133.381 133.281C132.981 133.281 132.582 133.129 132.276 132.824L130.413 130.96L128.549 132.824C127.938 133.434 126.949 133.434 126.339 132.824C125.729 132.214 125.729 131.224 126.339 130.614L129.308 127.645C129.918 127.035 130.907 127.035 131.518 127.645L134.486 130.614C135.097 131.225 135.097 132.214 134.486 132.824C134.181 133.129 133.781 133.281 133.381 133.281Z" fill="#67ADB9"/>
<path d="M100.802 50.566H58.5377C55.2032 50.566 52.5 53.2692 52.5 56.6038V113.962C52.5 117.297 55.2032 120 58.5377 120H100.802C104.136 120 106.84 117.297 106.84 113.962V56.6038C106.84 53.2692 104.136 50.566 100.802 50.566Z" fill="#5F97A0"/>
<path d="M57.5 57.5H102.5V115H57.5V57.5Z" fill="#E4F7F9"/>
<path d="M91.25 107.5H57.5V57.5H102.5V97.2059L91.25 107.5Z" fill="white"/>
<path d="M85.7078 49.0566V46.0377C85.7078 44.4364 85.0716 42.9007 83.9393 41.7684C82.8071 40.6361 81.2713 40 79.67 40C78.0687 40 76.533 40.6361 75.4007 41.7684C74.2684 42.9007 73.6323 44.4364 73.6323 46.0377V49.0566H67.5946L64.5757 53.5849V58.1132H94.7644V53.5849L91.7455 49.0566H85.7078Z" fill="#67ADB9"/>
<path d="M78.1611 44.5283H81.18V47.5472H78.1611V44.5283Z" fill="#578388"/>
<path d="M92.5 108.066V97.5H103.066L92.5 108.066Z" fill="#67ADB9"/>
<path d="M79.6704 95.8491C75.7145 94.5304 72.2738 92.0005 69.8357 88.6177C67.3975 85.235 66.0855 81.1708 66.0854 77.001V70.1887C70.0362 70.1887 73.9128 69.1149 77.3005 67.0823L79.6704 65.6604L82.0402 67.0823C85.4279 69.1149 89.3045 70.1887 93.2553 70.1887V77.001C93.2552 81.1708 91.9432 85.235 89.5051 88.6177C87.0669 92.0005 83.6262 94.5304 79.6704 95.8491Z" fill="#67ADB9"/>
<path d="M79.6699 83.7737C79.4356 83.7737 79.2045 83.7191 78.9949 83.6143C78.7853 83.5095 78.603 83.3574 78.4624 83.1699L73.9341 77.1322L76.3492 75.3208L79.6699 79.7486L92.0473 63.2454L94.4624 65.0567L80.8775 83.1699C80.7369 83.3574 80.5546 83.5095 80.345 83.6143C80.1354 83.7191 79.9043 83.7737 79.6699 83.7737Z" fill="#578388"/>
<path d="M63.0664 94.3396H70.6136V97.3585H63.0664V94.3396Z" fill="#67ADB9"/>
<path d="M63.0664 100.377H73.6324V103.396H63.0664V100.377Z" fill="#67ADB9"/>
</g>
<defs>
<clipPath id="clip0_855_80106">
<rect width="160" height="160" fill="white"/>
</clipPath>
</defs>
</svg>
