<svg width="196" height="160" viewBox="0 0 196 160" fill="none" xmlns="http://www.w3.org/2000/svg">
<path d="M179.951 30.3978C155.071 11.2701 130.94 26.8589 104.023 21.3472C76.9116 15.7956 66.11 -2.68941 35.2309 5.8432C7.87712 13.4014 -8.7203 43.705 6.31702 69.0754C10.6022 76.305 17.9021 81.7593 20.8854 89.8484C25.6977 102.898 18.3726 112.916 19.8015 125.741C25.7391 179.025 107.114 158.385 137.057 141.807C184.016 115.808 215.784 57.9467 179.951 30.3978Z" fill="#E4F7F9"/>
<path opacity="0.24" d="M157.016 11.0243C155.604 11.0243 154.192 10.4865 153.116 9.41174C150.966 7.26176 150.966 3.76314 153.116 1.61277C155.266 -0.537591 158.765 -0.537591 160.915 1.61277C163.065 3.76314 163.065 7.26138 160.915 9.41174C159.841 10.4865 158.428 11.0243 157.016 11.0243ZM157.016 3.80155C156.578 3.80155 156.14 3.96813 155.806 4.30206C155.139 4.96915 155.139 6.05498 155.806 6.72246C156.473 7.38955 157.559 7.38993 158.226 6.72246C158.894 6.05536 158.894 4.96953 158.226 4.30206C157.893 3.96813 157.454 3.80155 157.016 3.80155V3.80155Z" fill="#67ADB9"/>
<path opacity="0.48" d="M166.58 29.6189C165.168 29.6193 163.756 29.0815 162.681 28.0063C161.639 26.9646 161.066 25.5799 161.066 24.1069C161.066 22.6339 161.639 21.2491 162.681 20.2074C164.831 18.0574 168.329 18.057 170.48 20.2074C171.521 21.2491 172.095 22.6339 172.095 24.1069C172.095 25.5802 171.521 26.965 170.479 28.0063C169.405 29.0812 167.993 29.6189 166.58 29.6189V29.6189ZM166.58 22.3962C166.142 22.3962 165.704 22.5627 165.37 22.8967C165.047 23.2199 164.869 23.6497 164.869 24.1069C164.869 24.564 165.047 24.9938 165.37 25.3171C166.038 25.9845 167.124 25.9845 167.791 25.3171C168.114 24.9938 168.292 24.564 168.292 24.1069C168.292 23.6497 168.114 23.2203 167.791 22.8967C167.457 22.5627 167.019 22.3962 166.58 22.3962V22.3962Z" fill="#67ADB9"/>
<path opacity="0.24" d="M40.7136 69.7404C39.3015 69.7404 37.8889 69.2026 36.8141 68.1278C34.6642 65.9774 34.6642 62.4788 36.8141 60.3289C38.9641 58.1793 42.4631 58.1789 44.6131 60.3289C46.7631 62.4792 46.7631 65.9774 44.6131 68.1278C43.5383 69.2026 42.1258 69.7404 40.7136 69.7404ZM40.7136 62.5176C40.2755 62.5176 39.837 62.6842 39.5034 63.0181C38.836 63.6852 38.836 64.7711 39.5034 65.4385C40.1705 66.106 41.2567 66.1056 41.9238 65.4385C42.5913 64.7714 42.5913 63.6856 41.9238 63.0181C41.5903 62.6842 41.1521 62.5176 40.7136 62.5176Z" fill="#67ADB9"/>
<path opacity="0.48" d="M38.2617 86.8328C37.7749 86.8328 37.2885 86.6472 36.9169 86.276L34.6487 84.0077L32.3804 86.276C31.6376 87.0184 30.4339 87.0184 29.6911 86.276C28.9483 85.5332 28.9483 84.3291 29.6911 83.5867L33.3042 79.9736C34.047 79.2312 35.2507 79.2312 35.9935 79.9736L39.6066 83.5867C40.3494 84.3295 40.3494 85.5336 39.6066 86.276C39.235 86.6468 38.7486 86.8328 38.2617 86.8328Z" fill="#67ADB9"/>
<path opacity="0.48" d="M162.967 141.904C162.48 141.904 161.994 141.718 161.622 141.347L159.354 139.079L157.086 141.347C156.343 142.089 155.139 142.089 154.396 141.347C153.654 140.604 153.654 139.4 154.396 138.658L158.01 135.045C158.752 134.302 159.956 134.302 160.699 135.045L164.312 138.658C165.055 139.401 165.055 140.605 164.312 141.347C163.94 141.718 163.454 141.904 162.967 141.904Z" fill="#67ADB9"/>
<path d="M146.682 77.0579C146.682 103.944 124.886 125.74 97.9998 125.74C71.1133 125.74 49.3181 103.944 49.3181 77.0579C49.3181 50.1714 71.1133 28.3763 97.9998 28.3763C124.886 28.3763 146.682 50.1714 146.682 77.0579Z" fill="#7CD1DD"/>
<path d="M110.823 47.8843C110.27 45.745 107.908 42.712 98.9618 42.712C85.1394 42.712 83.1709 44.7592 79.4924 41.2241C76.3889 38.2417 74.566 52.596 78.7043 57.1547C76.9579 63.6113 78.3552 70.0784 78.3552 70.0784H117.246C117.245 70.0784 120.509 54.9723 110.823 47.8843Z" fill="#5F97A0"/>
<path d="M82.2811 70.7574C82.2811 70.7574 80.6045 67.6865 77.2514 67.6865C73.8983 67.6865 71.5227 82.4287 82.2811 79.9715V70.7574Z" fill="#FAFAFA"/>
<path d="M113.318 70.7574C113.318 70.7574 114.995 67.6865 118.348 67.6865C121.702 67.6865 124.077 82.4287 113.318 79.9715V70.7574Z" fill="#FAFAFA"/>
<path d="M97.7991 51.0027C72.1093 51.0027 77.0209 93.1356 97.7991 93.1356C118.577 93.1356 123.489 51.0027 97.7991 51.0027Z" fill="white"/>
<path d="M88.547 46.5664C83.6251 46.9091 81.9354 47.0268 79.4888 44.6761C77.8977 43.1466 76.6453 46.1781 76.3586 50.1083C75.9634 44.7927 77.449 39.2639 79.4888 41.2242C81.9356 43.5751 83.6255 43.4575 88.5485 43.115C91.0282 42.9424 94.3281 42.7128 98.9582 42.7128C107.906 42.7128 110.267 45.745 110.82 47.8851C117.31 52.6332 117.984 60.9759 117.724 65.9691C117.46 61.1422 115.971 55.1053 110.82 51.3362C110.267 49.1962 107.906 46.164 98.9582 46.164C94.3272 46.164 91.0269 46.3938 88.547 46.5664Z" fill="#5F97A0"/>
<path d="M80.3255 68.6651C80.3255 46.2444 97.7997 48.7099 97.7997 48.7099C97.7997 48.7099 115.273 46.2444 115.273 68.6651C115.273 68.6651 113.074 59.3983 108.025 56.8713C106.947 56.3312 106.182 56.6664 104.993 57.1875C103.59 57.8025 101.596 58.6763 97.7997 58.6763C94.0028 58.6763 92.0089 57.8025 90.6057 57.1875C89.4166 56.6664 88.6517 56.3312 87.5732 56.8713C82.5257 59.3983 80.3255 68.6651 80.3255 68.6651Z" fill="#5F97A0"/>
<path d="M133.149 110.739C131.901 107.68 129.364 105.227 126.087 104.15L110.301 98.9627C108.812 98.4732 107.8 97.0893 107.786 95.5212L107.729 89.1463C105.091 91.5219 101.806 92.9942 97.9648 93.0283C94.1244 93.0618 90.8144 91.6474 88.1336 89.3194L88.1878 95.4707C88.2019 97.0626 87.1842 98.4806 85.6711 98.9776L69.8906 104.153C66.6214 105.225 64.0869 107.667 62.833 110.716C71.6949 119.973 84.1751 125.739 98.0027 125.739C111.818 125.739 124.288 119.983 133.149 110.739V110.739Z" fill="#67ADB9"/>
<path d="M97.4212 112.776C105.516 112.776 112.42 107.695 115.129 100.55L110.299 98.9628C108.809 98.4732 107.798 97.0886 107.784 95.5212L107.728 89.1463C105.089 91.5219 101.805 92.9942 97.9634 93.0283C94.1223 93.0618 90.8123 91.6474 88.1322 89.3194L88.1864 95.4707C88.2005 97.0626 87.1828 98.4807 85.6697 98.9776L79.8459 100.887C82.6419 107.854 89.4544 112.776 97.4212 112.776V112.776Z" fill="#FAFAFA"/>
<path d="M97.9998 32.1795C124.248 32.1795 145.642 52.9555 146.641 78.9595C146.665 78.3281 146.682 77.6953 146.682 77.0579C146.682 50.1722 124.886 28.3763 97.9998 28.3763C71.1133 28.3763 49.3181 50.1722 49.3181 77.0579C49.3181 77.6953 49.3337 78.3281 49.3582 78.9595C50.3573 52.9555 71.7507 32.1795 97.9998 32.1795V32.1795Z" fill="#67ADB9"/>
</svg>
