<svg width="104" height="120" viewBox="0 0 104 120" fill="none" xmlns="http://www.w3.org/2000/svg">
<path opacity="0.48062" fill-rule="evenodd" clip-rule="evenodd" d="M55.6766 119.471C55.3313 119.564 54.976 119.359 54.883 119.014C54.79 118.669 54.9944 118.313 55.3397 118.22C55.8437 118.085 56.3689 117.943 57.0067 117.772C57.3521 117.679 57.7073 117.884 57.8 118.229C57.8928 118.575 57.6881 118.93 57.3427 119.023C56.7052 119.194 56.1803 119.335 55.6766 119.471ZM62.3468 117.676C62.0017 117.769 61.6461 117.565 61.5527 117.22C61.4593 116.875 61.6635 116.519 62.0086 116.426C62.5899 116.269 63.1407 116.119 63.6735 115.974C64.0185 115.88 64.3745 116.083 64.4685 116.428C64.5625 116.773 64.3591 117.129 64.0141 117.223C63.4804 117.369 62.9288 117.519 62.3468 117.676ZM69.0119 115.838C68.6679 115.935 68.31 115.735 68.2127 115.391C68.1153 115.047 68.3154 114.689 68.6595 114.592C69.2227 114.433 69.7743 114.275 70.3166 114.119C70.6603 114.02 71.019 114.219 71.1179 114.562C71.2168 114.906 71.0183 115.265 70.6747 115.364C70.1305 115.52 69.577 115.678 69.0119 115.838ZM75.6525 113.887C75.3106 113.992 74.9485 113.8 74.8437 113.458C74.7389 113.116 74.931 112.754 75.2729 112.649C75.8281 112.479 76.3759 112.309 76.9172 112.139C77.2584 112.031 77.6218 112.221 77.7291 112.562C77.8363 112.903 77.6468 113.267 77.3056 113.374C76.7614 113.545 76.2106 113.716 75.6525 113.887ZM82.2479 111.754C81.9096 111.87 81.5415 111.69 81.4257 111.351C81.3098 111.013 81.4902 110.645 81.8285 110.529C82.3757 110.342 82.9171 110.153 83.4533 109.964C83.7905 109.845 84.1604 110.022 84.2795 110.359C84.3986 110.696 84.2218 111.066 83.8846 111.185C83.3444 111.376 82.799 111.565 82.2479 111.754ZM88.7607 109.374C88.4276 109.504 88.0521 109.34 87.922 109.007C87.7918 108.674 87.9563 108.298 88.2893 108.168C88.7481 107.989 89.2033 107.808 89.6523 107.627C89.7684 107.58 89.7684 107.58 89.8832 107.533C90.2138 107.396 90.5923 107.554 90.7285 107.885C90.8647 108.215 90.707 108.594 90.3764 108.73C90.2597 108.778 90.2597 108.778 90.1391 108.827C89.683 109.011 89.2236 109.193 88.7607 109.374ZM95.1313 106.488C94.819 106.662 94.4246 106.55 94.2504 106.238C94.0762 105.926 94.1882 105.532 94.5005 105.357C95.0051 105.076 95.4857 104.788 95.9448 104.491C96.2451 104.297 96.646 104.383 96.8401 104.683C97.0343 104.983 96.9483 105.384 96.648 105.578C96.1646 105.891 95.6599 106.193 95.1313 106.488ZM100.733 102.049C100.516 102.334 100.11 102.389 99.8253 102.173C99.5406 101.956 99.4853 101.55 99.7017 101.265C100.033 100.829 100.306 100.374 100.507 99.9142C100.65 99.5865 101.032 99.437 101.36 99.5802C101.687 99.7235 101.837 100.105 101.693 100.433C101.45 100.99 101.124 101.534 100.733 102.049ZM101.067 94.8346C101.262 95.1344 101.177 95.5354 100.877 95.7304C100.578 95.9254 100.177 95.8405 99.9815 95.5408C99.7001 95.1082 99.3648 94.6941 98.9764 94.2953C98.7269 94.0391 98.7324 93.6291 98.9886 93.3797C99.2448 93.1302 99.6547 93.1356 99.9042 93.3918C100.35 93.8493 100.738 94.3289 101.067 94.8346ZM95.4735 90.2783C95.79 90.4447 95.9117 90.8362 95.7452 91.1527C95.5787 91.4692 95.1872 91.5908 94.8707 91.4244C94.7784 91.3758 94.6846 91.327 94.6021 91.2843C94.1903 91.0841 93.7748 90.8955 93.3508 90.7161C93.0215 90.5768 92.8674 90.1969 93.0067 89.8676C93.146 89.5382 93.526 89.3842 93.8553 89.5235C94.3 89.7116 94.7362 89.9095 95.1817 90.1264C95.2806 90.1773 95.3778 90.2279 95.4735 90.2783ZM88.8184 87.8921C89.1662 87.975 89.381 88.3242 89.298 88.6721C89.2151 89.0199 88.8659 89.2347 88.518 89.1517C87.9764 89.0226 87.4233 88.904 86.8575 88.7953C86.5064 88.7278 86.2764 88.3884 86.3439 88.0372C86.4114 87.6861 86.7507 87.4561 87.1019 87.5236C87.6861 87.6359 88.2578 87.7584 88.8184 87.8921ZM81.9031 86.8099C82.2592 86.8425 82.5214 87.1576 82.4888 87.5137C82.4562 87.8698 82.1411 88.1321 81.785 88.0995C81.2331 88.049 80.666 88.0037 80.0781 87.9629C79.7214 87.9381 79.4523 87.6288 79.477 87.2721C79.5018 86.9154 79.8111 86.6463 80.1678 86.671C80.7649 86.7125 81.3414 86.7585 81.9031 86.8099ZM74.9466 86.4197C75.304 86.4321 75.5837 86.7319 75.5713 87.0893C75.5589 87.4466 75.2592 87.7263 74.9018 87.7139C74.6446 87.705 74.3804 87.6961 74.0487 87.6849C73.7749 87.6807 73.4989 87.6773 73.2202 87.6745C72.8626 87.671 72.5756 87.3782 72.5791 87.0206C72.5827 86.6631 72.8754 86.3761 73.233 86.3796C73.514 86.3824 73.7923 86.3859 74.0802 86.3904C74.4241 86.4019 74.6888 86.4108 74.9466 86.4197ZM68.0373 86.3981C68.3948 86.3929 68.6889 86.6785 68.6941 87.036C68.6993 87.3936 68.4137 87.6877 68.0562 87.6929C67.5037 87.701 66.9332 87.7108 66.333 87.7225C65.9755 87.7295 65.68 87.4453 65.673 87.0878C65.666 86.7303 65.9502 86.4348 66.3077 86.4278C66.91 86.4161 67.4826 86.4062 68.0373 86.3981ZM61.1254 86.5484C61.4828 86.5396 61.7798 86.8223 61.7885 87.1797C61.7973 87.5372 61.5146 87.8342 61.1572 87.8429C60.4809 87.8595 59.9466 87.8724 59.4301 87.8842C59.0726 87.8925 58.7761 87.6093 58.7679 87.2518C58.7597 86.8943 59.0428 86.5978 59.4003 86.5896C59.9161 86.5778 60.4497 86.565 61.1254 86.5484ZM54.2311 86.6775C54.5886 86.6745 54.881 86.9619 54.8841 87.3194C54.8871 87.677 54.5998 87.9694 54.2422 87.9725C53.8803 87.9756 53.5248 87.9778 53.1767 87.9791C52.96 87.9807 52.7412 87.9831 52.5187 87.9862C52.1611 87.9911 51.8673 87.7052 51.8623 87.3477C51.8574 86.9901 52.1433 86.6962 52.5008 86.6913C52.726 86.6882 52.9475 86.6858 53.1694 86.6842C53.5177 86.6828 53.8713 86.6806 54.2311 86.6775ZM47.315 86.8252C47.6725 86.8164 47.9695 87.099 47.9783 87.4565C47.9872 87.814 47.7045 88.111 47.347 88.1198C46.7129 88.1355 46.1507 88.1457 45.6105 88.1506C45.253 88.1539 44.9604 87.8667 44.9572 87.5091C44.9539 87.1515 45.2411 86.859 45.5987 86.8557C46.1315 86.8508 46.6872 86.8407 47.315 86.8252ZM40.4769 86.6867C40.8333 86.7166 41.0979 87.0297 41.068 87.3861C41.0382 87.7424 40.7251 88.0071 40.3687 87.9772C39.7895 87.9286 39.2102 87.8692 38.6268 87.7982C38.2718 87.7549 38.0191 87.4321 38.0623 87.0772C38.1055 86.7222 38.4283 86.4695 38.7833 86.5127C39.3506 86.5818 39.9137 86.6395 40.4769 86.6867ZM33.7527 85.6254C34.1013 85.7049 34.3195 86.052 34.24 86.4006C34.1606 86.7493 33.8135 86.9675 33.4648 86.888C32.9369 86.7676 32.4005 86.6375 31.8546 86.4974C31.8078 86.4853 31.8078 86.4853 31.7632 86.4735C31.4175 86.3819 31.2116 86.0275 31.3031 85.6818C31.3947 85.3361 31.7492 85.1302 32.0948 85.2217C32.1346 85.2322 32.1346 85.2322 32.1767 85.2431C32.7113 85.3804 33.2362 85.5077 33.7527 85.6254ZM27.7205 82.9846C27.9992 83.2086 28.0435 83.6162 27.8194 83.8949C27.5954 84.1736 27.1878 84.2179 26.9091 83.9938C26.4369 83.6142 25.9906 83.2037 25.5748 82.7666C25.3284 82.5075 25.3386 82.0977 25.5977 81.8512C25.8568 81.6048 26.2666 81.615 26.5131 81.8741C26.8891 82.2695 27.2931 82.6409 27.7205 82.9846ZM23.9569 77.6522C24.0668 77.9925 23.88 78.3575 23.5397 78.4674C23.1994 78.5772 22.8345 78.3905 22.7246 78.0502C22.5348 77.4622 22.3955 76.8645 22.309 76.2614C22.2582 75.9075 22.5041 75.5794 22.858 75.5286C23.212 75.4778 23.5401 75.7236 23.5909 76.0776C23.6668 76.6073 23.7894 77.1335 23.9569 77.6522ZM24.1266 71.319C24.0074 71.6561 23.6374 71.8328 23.3003 71.7135C22.9631 71.5943 22.7865 71.2244 22.9057 70.8872C23.1043 70.3257 23.3435 69.7716 23.6221 69.224C23.7842 68.9052 24.174 68.7783 24.4927 68.9404C24.8115 69.1026 24.9384 69.4924 24.7763 69.8111C24.5229 70.3093 24.306 70.8116 24.1266 71.319ZM27.7092 65.7409C27.4657 66.0027 27.056 66.0176 26.7941 65.774C26.5323 65.5305 26.5174 65.1208 26.7609 64.859C27.1506 64.44 27.5636 64.0227 28.0015 63.6039C28.26 63.3568 28.6699 63.366 28.917 63.6245C29.1641 63.8829 29.1549 64.2928 28.8965 64.5399C28.4763 64.9417 28.0811 65.341 27.7092 65.7409Z" fill="#67ADB9"/>
<path d="M102.877 0.247122C103.534 0.411854 103.687 1.2061 103.519 1.77678C103.142 3.45352 102.489 5.05377 101.974 6.69227C94.8074 29.0635 87.6409 51.4347 80.4745 73.8059C80.3155 74.6884 79.3885 75.3444 78.5144 75.1532C69.3996 67.702 60.2613 60.2714 51.1288 52.8408C46.9908 57.1739 42.9146 61.5834 38.4235 65.5546C37.2756 66.4959 36.1337 67.4902 34.7711 68.1021C34.4061 68.2139 33.7528 68.4286 33.585 67.9344C33.535 67.0402 33.7616 66.1606 33.8528 65.2781C34.9506 56.7179 36.0631 48.1577 37.2315 39.6064C25.4738 37.8678 13.7191 36.1323 1.96139 34.4055C1.33451 34.2996 0.50161 34.1849 0.274992 33.4818C0.151381 32.5935 1.02254 32.0522 1.75243 31.8228C6.55851 30.449 11.291 28.837 16.0647 27.3544C44.2302 18.4088 72.3986 9.46918 100.564 0.523636C101.309 0.308896 102.097 0.0529729 102.877 0.247122Z" fill="#67ADB9"/>
<path fill-rule="evenodd" clip-rule="evenodd" d="M56.2744 28.9807C59.662 26.9755 63.0496 24.9704 66.4447 22.9801C76.5101 17.0439 86.5755 11.1047 96.6409 5.16553C92.0712 8.84141 87.447 12.4526 82.8226 16.064C80.0012 18.2673 77.1797 20.4707 74.3705 22.6889C71.2589 25.1285 68.1477 27.5684 65.0365 30.0083C58.8103 34.8911 52.584 39.774 46.3551 44.6542C46.0828 44.8725 45.7994 45.0785 45.5158 45.2845C44.9475 45.6976 44.3787 46.1109 43.8976 46.6251C43.3145 47.2642 43.0224 48.0755 42.7329 48.8799C42.6439 49.1269 42.5553 49.3733 42.4584 49.6138C41.7557 51.4077 41.0028 53.1829 40.2497 54.9586C39.8073 56.0015 39.3649 57.0445 38.9326 58.0916C37.8083 60.795 36.6164 63.4866 35.0507 65.9723C35.6814 60.7589 36.3732 55.5542 37.065 50.3497C37.5095 47.0056 37.954 43.6616 38.3822 40.3153C38.3969 40.2353 38.4071 40.151 38.4173 40.0654C38.4584 39.7229 38.5016 39.3622 38.8502 39.1974C44.6841 35.841 50.4794 32.4108 56.2744 28.9807ZM36.4398 66.0429C39.5271 60.0655 42.1965 53.8821 44.7688 47.6694C45.2181 48.0369 45.6665 48.4056 46.115 48.7744C47.4936 49.9081 48.8725 51.042 50.2783 52.1407C45.9843 57.065 41.3989 61.7775 36.4398 66.0429Z" fill="#578388"/>
</svg>
