<svg width="10" height="5" viewBox="0 0 10 5" fill="none" xmlns="http://www.w3.org/2000/svg">
<path d="M4.99997 4.66654C4.84421 4.66684 4.69325 4.61259 4.57331 4.51321L0.573308 1.17987C0.289802 0.944232 0.251 0.52338 0.486642 0.239873C0.722283 -0.0436327 1.14314 -0.0824347 1.42664 0.153207L4.99997 3.13987L8.57331 0.259873C8.71104 0.148026 8.88767 0.0956942 9.0641 0.114463C9.24052 0.133232 9.40219 0.221554 9.51331 0.359873C9.63673 0.498446 9.69681 0.682192 9.6791 0.866913C9.66139 1.05163 9.56748 1.22061 9.41997 1.33321L5.41997 4.55321C5.29659 4.63688 5.14871 4.67679 4.99997 4.66654Z" fill="#67ADB9"/>
</svg>
