<svg width="18" height="20" viewBox="0 0 18 20" fill="none" xmlns="http://www.w3.org/2000/svg">
<path d="M8.54167 17.3335H3.04167C2.79855 17.3335 2.5654 17.2369 2.39349 17.065C2.22158 16.8931 2.125 16.6599 2.125 16.4168V3.5835C2.125 3.34038 2.22158 3.10722 2.39349 2.93531C2.5654 2.76341 2.79855 2.66683 3.04167 2.66683H7.625V5.41683C7.625 6.14617 7.91473 6.84565 8.43046 7.36137C8.94618 7.8771 9.64566 8.16683 10.375 8.16683H13.125V12.7502C13.125 12.9933 13.2216 13.2264 13.3935 13.3983C13.5654 13.5703 13.7986 13.6668 14.0417 13.6668C14.2848 13.6668 14.5179 13.5703 14.6898 13.3983C14.8618 13.2264 14.9583 12.9933 14.9583 12.7502V7.25016C14.9583 7.25016 14.9583 7.25016 14.9583 7.19516C14.9488 7.11095 14.9304 7.02799 14.9033 6.94766V6.86516C14.8593 6.77091 14.8005 6.68427 14.7292 6.6085L9.22917 1.1085C9.15339 1.03719 9.06675 0.978404 8.9725 0.934329C8.94218 0.929021 8.91116 0.929021 8.88083 0.934329C8.7917 0.886666 8.69591 0.852675 8.59667 0.833496H3.04167C2.31232 0.833496 1.61285 1.12323 1.09712 1.63895C0.581399 2.15468 0.291668 2.85415 0.291668 3.5835V16.4168C0.291668 17.1462 0.581399 17.8456 1.09712 18.3614C1.61285 18.8771 2.31232 19.1668 3.04167 19.1668H8.54167C8.78478 19.1668 9.01794 19.0703 9.18985 18.8983C9.36176 18.7264 9.45833 18.4933 9.45833 18.2502C9.45833 18.007 9.36176 17.7739 9.18985 17.602C9.01794 17.4301 8.78478 17.3335 8.54167 17.3335ZM9.45833 3.95933L11.8325 6.3335H10.375C10.1319 6.3335 9.89873 6.23692 9.72682 6.06501C9.55491 5.8931 9.45833 5.65994 9.45833 5.41683V3.95933ZM4.875 11.8335H10.375C10.6181 11.8335 10.8513 11.7369 11.0232 11.565C11.1951 11.3931 11.2917 11.1599 11.2917 10.9168C11.2917 10.6737 11.1951 10.4406 11.0232 10.2686C10.8513 10.0967 10.6181 10.0002 10.375 10.0002H4.875C4.63189 10.0002 4.39873 10.0967 4.22682 10.2686C4.05491 10.4406 3.95833 10.6737 3.95833 10.9168C3.95833 11.1599 4.05491 11.3931 4.22682 11.565C4.39873 11.7369 4.63189 11.8335 4.875 11.8335ZM8.54167 13.6668H4.875C4.63189 13.6668 4.39873 13.7634 4.22682 13.9353C4.05491 14.1072 3.95833 14.3404 3.95833 14.5835C3.95833 14.8266 4.05491 15.0598 4.22682 15.2317C4.39873 15.4036 4.63189 15.5002 4.875 15.5002H8.54167C8.78478 15.5002 9.01794 15.4036 9.18985 15.2317C9.36176 15.0598 9.45833 14.8266 9.45833 14.5835C9.45833 14.3404 9.36176 14.1072 9.18985 13.9353C9.01794 13.7634 8.78478 13.6668 8.54167 13.6668ZM4.875 8.16683H5.79167C6.03478 8.16683 6.26794 8.07025 6.43985 7.89834C6.61176 7.72644 6.70833 7.49328 6.70833 7.25016C6.70833 7.00705 6.61176 6.77389 6.43985 6.60198C6.26794 6.43007 6.03478 6.3335 5.79167 6.3335H4.875C4.63189 6.3335 4.39873 6.43007 4.22682 6.60198C4.05491 6.77389 3.95833 7.00705 3.95833 7.25016C3.95833 7.49328 4.05491 7.72644 4.22682 7.89834C4.39873 8.07025 4.63189 8.16683 4.875 8.16683ZM17.4425 13.9327C17.3573 13.8467 17.2559 13.7785 17.1442 13.732C17.0325 13.6855 16.9127 13.6615 16.7917 13.6615C16.6707 13.6615 16.5508 13.6855 16.4391 13.732C16.3274 13.7785 16.2261 13.8467 16.1408 13.9327L13.125 16.9577L11.9425 15.766C11.857 15.6805 11.7556 15.6127 11.6439 15.5665C11.5322 15.5202 11.4125 15.4964 11.2917 15.4964C11.1708 15.4964 11.0511 15.5202 10.9394 15.5665C10.8278 15.6127 10.7263 15.6805 10.6408 15.766C10.5554 15.8515 10.4876 15.9529 10.4413 16.0646C10.3951 16.1763 10.3713 16.296 10.3713 16.4168C10.3713 16.5377 10.3951 16.6574 10.4413 16.7691C10.4876 16.8807 10.5554 16.9822 10.6408 17.0677L12.4742 18.901C12.5594 18.9869 12.6608 19.0551 12.7725 19.1016C12.8842 19.1482 13.004 19.1721 13.125 19.1721C13.246 19.1721 13.3658 19.1482 13.4775 19.1016C13.5892 19.0551 13.6906 18.9869 13.7758 18.901L17.4425 15.2343C17.5284 15.1491 17.5966 15.0477 17.6432 14.936C17.6897 14.8243 17.7136 14.7045 17.7136 14.5835C17.7136 14.4625 17.6897 14.3427 17.6432 14.231C17.5966 14.1193 17.5284 14.0179 17.4425 13.9327Z" fill="#67ADB9"/>
</svg>
