<svg width="18" height="18" viewBox="0 0 18 18" fill="none" xmlns="http://www.w3.org/2000/svg">
<path d="M12.6667 3.49984H15.4167C15.6598 3.49984 15.8929 3.59641 16.0649 3.76832C16.2368 3.94023 16.3333 4.17339 16.3333 4.4165V14.4998C16.3333 14.9861 16.1402 15.4524 15.7964 15.7962C15.4525 16.14 14.9862 16.3332 14.5 16.3332M14.5 16.3332C14.0138 16.3332 13.5475 16.14 13.2036 15.7962C12.8598 15.4524 12.6667 14.9861 12.6667 14.4998V2.58317C12.6667 2.34006 12.5701 2.1069 12.3982 1.93499C12.2263 1.76308 11.9931 1.6665 11.75 1.6665H2.58333C2.34022 1.6665 2.10706 1.76308 1.93515 1.93499C1.76325 2.1069 1.66667 2.34006 1.66667 2.58317V13.5832C1.66667 14.3125 1.9564 15.012 2.47212 15.5277C2.98785 16.0434 3.68732 16.3332 4.41667 16.3332H14.5ZM5.33333 5.33317H9M5.33333 8.99984H9M5.33333 12.6665H9" stroke="#5F97A0" stroke-width="2" stroke-linecap="round" stroke-linejoin="round"/>
</svg>
