<svg width="16" height="20" viewBox="0 0 16 20" fill="none" xmlns="http://www.w3.org/2000/svg">
<path d="M10.75 13.6663H5.24999C5.00687 13.6663 4.77372 13.7629 4.60181 13.9348C4.4299 14.1067 4.33332 14.3399 4.33332 14.583C4.33332 14.8261 4.4299 15.0593 4.60181 15.2312C4.77372 15.4031 5.00687 15.4997 5.24999 15.4997H10.75C10.9931 15.4997 11.2263 15.4031 11.3982 15.2312C11.5701 15.0593 11.6667 14.8261 11.6667 14.583C11.6667 14.3399 11.5701 14.1067 11.3982 13.9348C11.2263 13.7629 10.9931 13.6663 10.75 13.6663ZM5.24999 8.16634H6.16666C6.40977 8.16634 6.64293 8.06976 6.81484 7.89786C6.98675 7.72595 7.08332 7.49279 7.08332 7.24967C7.08332 7.00656 6.98675 6.7734 6.81484 6.60149C6.64293 6.42958 6.40977 6.33301 6.16666 6.33301H5.24999C5.00687 6.33301 4.77372 6.42958 4.60181 6.60149C4.4299 6.7734 4.33332 7.00656 4.33332 7.24967C4.33332 7.49279 4.4299 7.72595 4.60181 7.89786C4.77372 8.06976 5.00687 8.16634 5.24999 8.16634ZM10.75 9.99967H5.24999C5.00687 9.99967 4.77372 10.0963 4.60181 10.2682C4.4299 10.4401 4.33332 10.6732 4.33332 10.9163C4.33332 11.1595 4.4299 11.3926 4.60181 11.5645C4.77372 11.7364 5.00687 11.833 5.24999 11.833H10.75C10.9931 11.833 11.2263 11.7364 11.3982 11.5645C11.5701 11.3926 11.6667 11.1595 11.6667 10.9163C11.6667 10.6732 11.5701 10.4401 11.3982 10.2682C11.2263 10.0963 10.9931 9.99967 10.75 9.99967ZM15.0675 13.0155C14.9803 12.9321 14.8775 12.8666 14.765 12.823C14.6556 12.7734 14.5368 12.7477 14.4167 12.7477C14.2965 12.7477 14.1777 12.7734 14.0683 12.823C13.9558 12.8666 13.853 12.9321 13.7658 13.0155C13.6849 13.1046 13.6197 13.2069 13.5733 13.318C13.5031 13.4849 13.4839 13.6689 13.5182 13.8468C13.5525 14.0246 13.6386 14.1883 13.7658 14.3172C13.8515 14.4021 13.9531 14.4693 14.0647 14.515C14.1764 14.5606 14.296 14.5837 14.4167 14.583C14.5364 14.5816 14.6548 14.5566 14.765 14.5097C14.8761 14.4633 14.9784 14.3981 15.0675 14.3172C15.1947 14.1883 15.2808 14.0246 15.3151 13.8468C15.3494 13.6689 15.3302 13.4849 15.26 13.318C15.2136 13.2069 15.1485 13.1046 15.0675 13.0155ZM15.3333 7.19467C15.3238 7.11046 15.3053 7.0275 15.2783 6.94717V6.86467C15.2343 6.77042 15.1755 6.68378 15.1042 6.60801L9.60416 1.10801C9.52838 1.03671 9.44174 0.977915 9.34749 0.933841C9.32013 0.929955 9.29235 0.929955 9.26499 0.933841C9.17187 0.880437 9.06903 0.846157 8.96249 0.833008H3.41666C2.68731 0.833008 1.98784 1.12274 1.47211 1.63846C0.956388 2.15419 0.666656 2.85366 0.666656 3.58301V16.4163C0.666656 17.1457 0.956388 17.8452 1.47211 18.3609C1.98784 18.8766 2.68731 19.1663 3.41666 19.1663H10.75C10.9931 19.1663 11.2263 19.0698 11.3982 18.8979C11.5701 18.7259 11.6667 18.4928 11.6667 18.2497C11.6667 18.0066 11.5701 17.7734 11.3982 17.6015C11.2263 17.4296 10.9931 17.333 10.75 17.333H3.41666C3.17354 17.333 2.94038 17.2364 2.76848 17.0645C2.59657 16.8926 2.49999 16.6595 2.49999 16.4163V3.58301C2.49999 3.33989 2.59657 3.10673 2.76848 2.93483C2.94038 2.76292 3.17354 2.66634 3.41666 2.66634H7.99999V5.41634C7.99999 6.14569 8.28972 6.84516 8.80545 7.36088C9.32117 7.87661 10.0206 8.16634 10.75 8.16634H13.5V9.99967C13.5 10.2428 13.5966 10.4759 13.7685 10.6479C13.9404 10.8198 14.1735 10.9163 14.4167 10.9163C14.6598 10.9163 14.8929 10.8198 15.0648 10.6479C15.2367 10.4759 15.3333 10.2428 15.3333 9.99967V7.24967C15.3333 7.24967 15.3333 7.24967 15.3333 7.19467ZM10.75 6.33301C10.5069 6.33301 10.2737 6.23643 10.1018 6.06452C9.9299 5.89261 9.83332 5.65946 9.83332 5.41634V3.95884L12.2075 6.33301H10.75ZM14.4167 15.4997C14.1735 15.4997 13.9404 15.5963 13.7685 15.7682C13.5966 15.9401 13.5 16.1732 13.5 16.4163V18.2497C13.5 18.4928 13.5966 18.7259 13.7685 18.8979C13.9404 19.0698 14.1735 19.1663 14.4167 19.1663C14.6598 19.1663 14.8929 19.0698 15.0648 18.8979C15.2367 18.7259 15.3333 18.4928 15.3333 18.2497V16.4163C15.3333 16.1732 15.2367 15.9401 15.0648 15.7682C14.8929 15.5963 14.6598 15.4997 14.4167 15.4997Z" fill="#67ADB9"/>
</svg>
