<svg width="20" height="20" viewBox="0 0 20 20" fill="none" xmlns="http://www.w3.org/2000/svg">
<path d="M8.16683 14.583H9.0835V15.4997C9.0835 15.7428 9.18007 15.9759 9.35198 16.1479C9.52389 16.3198 9.75705 16.4163 10.0002 16.4163C10.2433 16.4163 10.4764 16.3198 10.6483 16.1479C10.8203 15.9759 10.9168 15.7428 10.9168 15.4997V14.583H11.8335C12.0766 14.583 12.3098 14.4864 12.4817 14.3145C12.6536 14.1426 12.7502 13.9095 12.7502 13.6663C12.7502 13.4232 12.6536 13.1901 12.4817 13.0182C12.3098 12.8463 12.0766 12.7497 11.8335 12.7497H10.9168V11.833C10.9168 11.5899 10.8203 11.3567 10.6483 11.1848C10.4764 11.0129 10.2433 10.9163 10.0002 10.9163C9.75705 10.9163 9.52389 11.0129 9.35198 11.1848C9.18007 11.3567 9.0835 11.5899 9.0835 11.833V12.7497H8.16683C7.92371 12.7497 7.69056 12.8463 7.51865 13.0182C7.34674 13.1901 7.25016 13.4232 7.25016 13.6663C7.25016 13.9095 7.34674 14.1426 7.51865 14.3145C7.69056 14.4864 7.92371 14.583 8.16683 14.583ZM16.4168 4.49967H14.5835V3.58301C14.5835 2.85366 14.2938 2.15419 13.778 1.63846C13.2623 1.12274 12.5628 0.833008 11.8335 0.833008H8.16683C7.43748 0.833008 6.73801 1.12274 6.22229 1.63846C5.70656 2.15419 5.41683 2.85366 5.41683 3.58301V4.49967H3.5835C2.85415 4.49967 2.15468 4.78941 1.63895 5.30513C1.12323 5.82086 0.833496 6.52033 0.833496 7.24967V16.4163C0.833496 17.1457 1.12323 17.8452 1.63895 18.3609C2.15468 18.8766 2.85415 19.1663 3.5835 19.1663H16.4168C17.1462 19.1663 17.8456 18.8766 18.3614 18.3609C18.8771 17.8452 19.1668 17.1457 19.1668 16.4163V7.24967C19.1668 6.52033 18.8771 5.82086 18.3614 5.30513C17.8456 4.78941 17.1462 4.49967 16.4168 4.49967ZM7.25016 3.58301C7.25016 3.33989 7.34674 3.10673 7.51865 2.93483C7.69056 2.76292 7.92371 2.66634 8.16683 2.66634H11.8335C12.0766 2.66634 12.3098 2.76292 12.4817 2.93483C12.6536 3.10673 12.7502 3.33989 12.7502 3.58301V4.49967H7.25016V3.58301ZM17.3335 16.4163C17.3335 16.6595 17.2369 16.8926 17.065 17.0645C16.8931 17.2364 16.6599 17.333 16.4168 17.333H3.5835C3.34038 17.333 3.10722 17.2364 2.93531 17.0645C2.76341 16.8926 2.66683 16.6595 2.66683 16.4163V9.99967H17.3335V16.4163ZM17.3335 8.16634H2.66683V7.24967C2.66683 7.00656 2.76341 6.7734 2.93531 6.60149C3.10722 6.42958 3.34038 6.33301 3.5835 6.33301H16.4168C16.6599 6.33301 16.8931 6.42958 17.065 6.60149C17.2369 6.7734 17.3335 7.00656 17.3335 7.24967V8.16634Z" fill="#67ADB9"/>
</svg>
