<svg width="20" height="18" viewBox="0 0 20 18" fill="none" xmlns="http://www.w3.org/2000/svg">
<path d="M11.8333 9.45868H10.9167V8.54201C10.9167 8.2989 10.8201 8.06574 10.6482 7.89383C10.4763 7.72192 10.2431 7.62535 10 7.62535C9.7569 7.62535 9.52374 7.72192 9.35183 7.89383C9.17992 8.06574 9.08334 8.2989 9.08334 8.54201V9.45868H8.16668C7.92356 9.45868 7.6904 9.55526 7.5185 9.72716C7.34659 9.89907 7.25001 10.1322 7.25001 10.3753C7.25001 10.6185 7.34659 10.8516 7.5185 11.0235C7.6904 11.1954 7.92356 11.292 8.16668 11.292H9.08334V12.2087C9.08334 12.4518 9.17992 12.685 9.35183 12.8569C9.52374 13.0288 9.7569 13.1253 10 13.1253C10.2431 13.1253 10.4763 13.0288 10.6482 12.8569C10.8201 12.685 10.9167 12.4518 10.9167 12.2087V11.292H11.8333C12.0765 11.292 12.3096 11.1954 12.4815 11.0235C12.6534 10.8516 12.75 10.6185 12.75 10.3753C12.75 10.1322 12.6534 9.89907 12.4815 9.72716C12.3096 9.55526 12.0765 9.45868 11.8333 9.45868ZM16.4167 3.04201H10.66L10.3667 2.12535C10.1765 1.58747 9.82378 1.12206 9.35734 0.793577C8.89089 0.465096 8.33384 0.289813 7.76334 0.292013H3.58334C2.854 0.292013 2.15452 0.581744 1.6388 1.09747C1.12307 1.61319 0.833344 2.31267 0.833344 3.04201V14.9587C0.833344 15.688 1.12307 16.3875 1.6388 16.9032C2.15452 17.4189 2.854 17.7087 3.58334 17.7087H16.4167C17.146 17.7087 17.8455 17.4189 18.3612 16.9032C18.8769 16.3875 19.1667 15.688 19.1667 14.9587V5.79201C19.1667 5.06267 18.8769 4.36319 18.3612 3.84747C17.8455 3.33174 17.146 3.04201 16.4167 3.04201ZM17.3333 14.9587C17.3333 15.2018 17.2368 15.435 17.0649 15.6069C16.893 15.7788 16.6598 15.8753 16.4167 15.8753H3.58334C3.34023 15.8753 3.10707 15.7788 2.93516 15.6069C2.76325 15.435 2.66668 15.2018 2.66668 14.9587V3.04201C2.66668 2.7989 2.76325 2.56574 2.93516 2.39383C3.10707 2.22192 3.34023 2.12535 3.58334 2.12535H7.76334C7.95552 2.12485 8.14299 2.18476 8.29925 2.29662C8.45552 2.40847 8.57268 2.56661 8.63418 2.74868L9.12918 4.25201C9.19067 4.43408 9.30783 4.59222 9.4641 4.70407C9.62037 4.81593 9.80784 4.87584 10 4.87535H16.4167C16.6598 4.87535 16.893 4.97192 17.0649 5.14383C17.2368 5.31574 17.3333 5.5489 17.3333 5.79201V14.9587Z" fill="#67ADB9"/>
</svg>
