<svg width="20" height="20" viewBox="0 0 20 20" fill="none" xmlns="http://www.w3.org/2000/svg">
<path d="M12.5758 10.2563C13.1561 9.63323 13.4829 8.81605 13.4925 7.96467C13.4925 7.0457 13.1274 6.16436 12.4776 5.51455C11.8278 4.86474 10.9465 4.49967 10.0275 4.49967C9.10853 4.49967 8.2272 4.86474 7.57739 5.51455C6.92757 6.16436 6.56251 7.0457 6.56251 7.96467C6.57208 8.81605 6.89895 9.63323 7.47918 10.2563C6.67128 10.6586 5.97605 11.2554 5.45602 11.9931C4.93599 12.7307 4.60747 13.5861 4.50001 14.4822C4.47327 14.7253 4.5442 14.9691 4.6972 15.1599C4.85019 15.3507 5.07273 15.4729 5.31584 15.4997C5.55896 15.5264 5.80274 15.4555 5.99356 15.3025C6.18438 15.1495 6.3066 14.927 6.33334 14.6838C6.44273 13.7957 6.87312 12.9782 7.54342 12.3854C8.21373 11.7926 9.07767 11.4654 9.97251 11.4654C10.8673 11.4654 11.7313 11.7926 12.4016 12.3854C13.0719 12.9782 13.5023 13.7957 13.6117 14.6838C13.6372 14.9189 13.7525 15.135 13.9336 15.287C14.1146 15.439 14.3474 15.5152 14.5833 15.4997H14.6842C14.9245 15.472 15.1441 15.3505 15.2952 15.1617C15.4463 14.9728 15.5166 14.7318 15.4908 14.4913C15.3913 13.6 15.0732 12.747 14.5647 12.0081C14.0561 11.2693 13.3729 10.6676 12.5758 10.2563ZM10 9.59634C9.6773 9.59634 9.36183 9.50064 9.0935 9.32135C8.82518 9.14207 8.61604 8.88723 8.49255 8.58909C8.36905 8.29094 8.33674 7.96286 8.39969 7.64635C8.46265 7.32984 8.61805 7.0391 8.84625 6.81091C9.07444 6.58272 9.36518 6.42732 9.68169 6.36436C9.9982 6.3014 10.3263 6.33371 10.6244 6.45721C10.9226 6.58071 11.1774 6.78984 11.3567 7.05817C11.536 7.3265 11.6317 7.64196 11.6317 7.96467C11.6317 8.39742 11.4598 8.81244 11.1538 9.11844C10.8478 9.42443 10.4328 9.59634 10 9.59634ZM16.4167 0.833008H3.58334C2.854 0.833008 2.15452 1.12274 1.6388 1.63846C1.12307 2.15419 0.833344 2.85366 0.833344 3.58301V16.4163C0.833344 17.1457 1.12307 17.8452 1.6388 18.3609C2.15452 18.8766 2.854 19.1663 3.58334 19.1663H16.4167C17.146 19.1663 17.8455 18.8766 18.3612 18.3609C18.8769 17.8452 19.1667 17.1457 19.1667 16.4163V3.58301C19.1667 2.85366 18.8769 2.15419 18.3612 1.63846C17.8455 1.12274 17.146 0.833008 16.4167 0.833008ZM17.3333 16.4163C17.3333 16.6595 17.2368 16.8926 17.0649 17.0645C16.893 17.2364 16.6598 17.333 16.4167 17.333H3.58334C3.34023 17.333 3.10707 17.2364 2.93516 17.0645C2.76325 16.8926 2.66668 16.6595 2.66668 16.4163V3.58301C2.66668 3.33989 2.76325 3.10673 2.93516 2.93483C3.10707 2.76292 3.34023 2.66634 3.58334 2.66634H16.4167C16.6598 2.66634 16.893 2.76292 17.0649 2.93483C17.2368 3.10673 17.3333 3.33989 17.3333 3.58301V16.4163Z" fill="#67ADB9"/>
</svg>
