<svg width="22" height="16" viewBox="0 0 22 16" fill="none" xmlns="http://www.w3.org/2000/svg">
<path d="M11.275 8.20134C11.7641 7.77796 12.1564 7.25432 12.4253 6.66595C12.6942 6.07757 12.8333 5.43824 12.8333 4.79134C12.8333 3.57577 12.3504 2.40998 11.4909 1.55044C10.6314 0.690894 9.46557 0.208008 8.24999 0.208008C7.03441 0.208008 5.86863 0.690894 5.00908 1.55044C4.14954 2.40998 3.66666 3.57577 3.66666 4.79134C3.66665 5.43824 3.80581 6.07757 4.07469 6.66595C4.34357 7.25432 4.73588 7.77796 5.22499 8.20134C3.94178 8.7824 2.85308 9.72074 2.08906 10.9042C1.32503 12.0876 0.918006 13.466 0.916656 14.8747C0.916656 15.1178 1.01323 15.3509 1.18514 15.5229C1.35705 15.6948 1.59021 15.7913 1.83332 15.7913C2.07644 15.7913 2.3096 15.6948 2.4815 15.5229C2.65341 15.3509 2.74999 15.1178 2.74999 14.8747C2.74999 13.416 3.32945 12.017 4.3609 10.9856C5.39235 9.95414 6.7913 9.37467 8.24999 9.37467C9.70868 9.37467 11.1076 9.95414 12.1391 10.9856C13.1705 12.017 13.75 13.416 13.75 14.8747C13.75 15.1178 13.8466 15.3509 14.0185 15.5229C14.1904 15.6948 14.4235 15.7913 14.6667 15.7913C14.9098 15.7913 15.1429 15.6948 15.3148 15.5229C15.4867 15.3509 15.5833 15.1178 15.5833 14.8747C15.582 13.466 15.175 12.0876 14.4109 10.9042C13.6469 9.72074 12.5582 8.7824 11.275 8.20134ZM8.24999 7.54134C7.70609 7.54134 7.17441 7.38006 6.72217 7.07788C6.26994 6.77571 5.91746 6.34622 5.70932 5.84372C5.50118 5.34122 5.44672 4.78829 5.55283 4.25484C5.65894 3.7214 5.92085 3.23139 6.30545 2.8468C6.69004 2.4622 7.18004 2.20029 7.71349 2.09418C8.24694 1.98807 8.79987 2.04253 9.30237 2.25067C9.80487 2.45881 10.2344 2.81129 10.5365 3.26352C10.8387 3.71576 11 4.24744 11 4.79134C11 5.52069 10.7103 6.22016 10.1945 6.73588C9.67881 7.25161 8.97934 7.54134 8.24999 7.54134ZM17.1783 7.83467C17.765 7.17406 18.1482 6.35797 18.2818 5.48465C18.4155 4.61133 18.2938 3.71799 17.9316 2.91217C17.5694 2.10636 16.982 1.4224 16.2401 0.942645C15.4982 0.462887 14.6335 0.207772 13.75 0.208008C13.5069 0.208008 13.2737 0.304585 13.1018 0.476493C12.9299 0.648402 12.8333 0.88156 12.8333 1.12467C12.8333 1.36779 12.9299 1.60095 13.1018 1.77286C13.2737 1.94476 13.5069 2.04134 13.75 2.04134C14.4793 2.04134 15.1788 2.33107 15.6945 2.8468C16.2103 3.36252 16.5 4.062 16.5 4.79134C16.4987 5.27281 16.371 5.7455 16.1297 6.16214C15.8884 6.57879 15.542 6.92477 15.125 7.16551C14.9891 7.2439 14.8756 7.35587 14.7953 7.49069C14.7151 7.62551 14.6708 7.77867 14.6667 7.93551C14.6628 8.09112 14.6987 8.24515 14.7708 8.38308C14.843 8.521 14.9491 8.63827 15.0792 8.72384L15.4367 8.96217L15.5558 9.02634C16.6608 9.55042 17.5929 10.3793 18.2426 11.4155C18.8922 12.4516 19.2322 13.6518 19.2225 14.8747C19.2225 15.1178 19.3191 15.3509 19.491 15.5229C19.6629 15.6948 19.896 15.7913 20.1392 15.7913C20.3823 15.7913 20.6154 15.6948 20.7873 15.5229C20.9592 15.3509 21.0558 15.1178 21.0558 14.8747C21.0633 13.468 20.711 12.0827 20.0323 10.8506C19.3537 9.61839 18.3712 8.58021 17.1783 7.83467Z" fill="#67ADB9"/>
</svg>
